<svg width="248" height="34" viewBox="0 0 248 34" fill="none" xmlns="http://www.w3.org/2000/svg">
<path d="M227.694 0.426392H247.242V5.44454H233.499V8.69158H246.586V13.6441H233.499V16.924H247.242V21.9421H227.694V0.426392Z" fill="white"/>
<path d="M211.445 5.60854H203.475V0.426392H225.221V5.60854H217.251V21.9421H211.445V5.60854Z" fill="white"/>
<path d="M178.8 0.426392H184.54V13.9393L195.199 0.426392H201.004V21.9421H195.265V8.4292L184.605 21.9421H178.8V0.426392Z" fill="white"/>
<path d="M148.75 16.76H151.473C152.566 15.0326 153.145 12.8351 153.211 10.1675L153.408 0.426392H172.792V16.76H176.104V26.3043H170.299V21.9421H154.556V26.3043H148.75V16.76ZM166.986 16.76V5.64133H158.655L158.557 10.2003C158.491 12.9116 157.978 15.0982 157.016 16.76H166.986Z" fill="white"/>
<path d="M135.569 22.3685C132.967 22.3685 130.671 21.9203 128.681 21.0238C126.713 20.1054 125.194 18.8153 124.122 17.1536C123.051 15.4699 122.515 13.5239 122.515 11.3154V11.0859C122.515 8.85556 123.051 6.90953 124.122 5.24774C125.194 3.56409 126.713 2.27402 128.681 1.37753C130.671 0.459177 132.967 0 135.569 0C138.215 0 140.522 0.459177 142.489 1.37753C144.457 2.27402 145.977 3.56409 147.048 5.24774C148.12 6.90953 148.656 8.85556 148.656 11.0859V11.3154C148.656 13.5457 148.12 15.4918 147.048 17.1536C145.977 18.8153 144.457 20.1054 142.489 21.0238C140.522 21.9203 138.215 22.3685 135.569 22.3685ZM135.569 16.9568C140.358 16.9568 142.752 15.1091 142.752 11.4138V11.0203C142.752 9.18355 142.14 7.79508 140.915 6.85486C139.713 5.89278 137.93 5.41173 135.569 5.41173C133.251 5.41173 131.48 5.89278 130.256 6.85486C129.031 7.81695 128.419 9.20541 128.419 11.0203V11.4138C128.419 13.2287 129.02 14.6062 130.223 15.5464C131.425 16.4867 133.208 16.9568 135.569 16.9568Z" fill="white"/>
<path d="M98.1082 0.426392H111.162C113.764 0.426392 115.776 0.9293 117.197 1.93512C118.618 2.94093 119.329 4.37313 119.329 6.2317V6.55969C119.329 8.44013 118.574 9.90512 117.066 10.9547C118.028 11.4576 118.76 12.1026 119.263 12.8898C119.766 13.6769 120.017 14.5953 120.017 15.6448V15.9728C120.017 17.8314 119.285 19.2964 117.82 20.3678C116.377 21.4174 114.376 21.9421 111.818 21.9421H98.1082V0.426392ZM111.687 16.9568C113.283 16.9568 114.081 16.4101 114.081 15.3169V14.9889C114.081 13.9175 113.283 13.3818 111.687 13.3818H103.913V16.9568H111.687ZM111.162 8.82278C111.971 8.82278 112.561 8.70252 112.933 8.462C113.327 8.19961 113.523 7.80603 113.523 7.28125V6.95327C113.523 5.92559 112.736 5.41175 111.162 5.41175H103.913V8.82278H111.162Z" fill="white"/>
<path d="M74.7341 0.426392H94.282V5.44454H80.5395V8.69158H93.626V13.6441H80.5395V16.924H94.282V21.9421H74.7341V0.426392Z" fill="white"/>
<path d="M49.2462 0.426392H63.0543C65.7001 0.426392 67.7664 1.06049 69.2532 2.3287C70.762 3.57504 71.5163 5.30242 71.5163 7.51084V7.83883C71.5163 10.0473 70.762 11.7856 69.2532 13.0538C67.7664 14.322 65.7001 14.9561 63.0543 14.9561H55.0515V21.9421H49.2462V0.426392ZM62.9231 9.90512C63.7978 9.90512 64.4647 9.7302 64.9238 9.38035C65.383 9.0305 65.6126 8.51666 65.6126 7.83883V7.51084C65.6126 6.85487 65.383 6.35197 64.9238 6.00212C64.4647 5.65227 63.7978 5.47734 62.9231 5.47734H55.0515V9.90512H62.9231Z" fill="white"/>
<path d="M25.8722 0.426392H45.42V5.44454H31.6775V8.69158H44.7641V13.6441H31.6775V16.924H45.42V21.9421H25.8722V0.426392Z" fill="white"/>
<path d="M0 0.426392H21.5485V21.9421H15.7432V5.60854H5.80531V21.9421H0V0.426392Z" fill="white"/>
</svg>
