<svg width="258" height="26" viewBox="0 0 258 26" fill="none" xmlns="http://www.w3.org/2000/svg">
<path d="M244.535 22.3685C241.933 22.3685 239.637 21.9203 237.648 21.0238C235.68 20.1054 234.16 18.8153 233.089 17.1536C232.017 15.4699 231.482 13.5239 231.482 11.3154V11.0859C231.482 8.85556 232.017 6.90953 233.089 5.24774C234.16 3.56409 235.68 2.27402 237.648 1.37753C239.637 0.459177 241.933 0 244.535 0C247.181 0 249.488 0.459177 251.456 1.37753C253.424 2.27402 254.943 3.56409 256.015 5.24774C257.086 6.90953 257.622 8.85556 257.622 11.0859V11.3154C257.622 13.5457 257.086 15.4918 256.015 17.1536C254.943 18.8153 253.424 20.1054 251.456 21.0238C249.488 21.9203 247.181 22.3685 244.535 22.3685ZM244.535 16.9568C249.324 16.9568 251.718 15.1091 251.718 11.4138V11.0203C251.718 9.18355 251.106 7.79508 249.881 6.85486C248.679 5.89278 246.897 5.41173 244.535 5.41173C242.218 5.41173 240.446 5.89278 239.222 6.85486C237.998 7.81695 237.385 9.20541 237.385 11.0203V11.4138C237.385 13.2287 237.987 14.6062 239.189 15.5464C240.392 16.4867 242.174 16.9568 244.535 16.9568Z" fill="white"/>
<path d="M205.953 0.426392H211.759V8.59319H222.353V0.426392H228.158V21.9421H222.353V13.7753H211.759V21.9421H205.953V0.426392Z" fill="white"/>
<path d="M201.63 21.9421H195.824V14.4969C193.572 14.803 191.484 14.9561 189.56 14.9561C186.214 14.9561 183.689 14.2564 181.983 12.857C180.3 11.4576 179.458 9.36942 179.458 6.59249V0.426392H185.263V6.06771C185.263 7.33592 185.679 8.26521 186.51 8.85558C187.341 9.42408 188.652 9.70833 190.445 9.70833C191.976 9.70833 193.769 9.62087 195.824 9.44595V0.426392H201.63V21.9421Z" fill="white"/>
<path d="M153.536 0.426392H159.276V13.9393L169.935 0.426392H175.741V21.9421H170.001V8.4292L159.342 21.9421H153.536V0.426392Z" fill="white"/>
<path d="M125.495 16.76H126.283C127.507 16.76 128.371 16.432 128.874 15.776C129.398 15.1201 129.683 13.9831 129.726 12.365L129.956 0.426392H149.209V21.9421H143.403V5.64133H135.204L135.04 12.8242C134.996 15.8416 134.329 18.1157 133.039 19.6462C131.771 21.1768 129.89 21.9421 127.398 21.9421H125.495V16.76Z" fill="white"/>
<path d="M101.279 0.426392H107.019V13.9393L117.678 0.426392H123.484V21.9421H117.744V8.4292L107.084 21.9421H101.279V0.426392Z" fill="white"/>
<path d="M75.7913 0.426392H89.5994C92.2451 0.426392 94.3114 1.06049 95.7983 2.3287C97.307 3.57504 98.0614 5.30242 98.0614 7.51084V7.83883C98.0614 10.0473 97.307 11.7856 95.7983 13.0538C94.3114 14.322 92.2451 14.9561 89.5994 14.9561H81.5966V21.9421H75.7913V0.426392ZM89.4682 9.90512C90.3428 9.90512 91.0097 9.7302 91.4689 9.38035C91.9281 9.0305 92.1577 8.51666 92.1577 7.83883V7.51084C92.1577 6.85487 91.9281 6.35197 91.4689 6.00212C91.0097 5.65227 90.3428 5.47734 89.4682 5.47734H81.5966V9.90512H89.4682Z" fill="white"/>
<path d="M49.9189 0.426392H71.4675V21.9421H65.6622V5.60854H55.7243V21.9421H49.9189V0.426392Z" fill="white"/>
<path d="M26.5449 0.426392H46.0928V5.44454H32.3502V8.69158H45.4368V13.6441H32.3502V16.924H46.0928V21.9421H26.5449V0.426392Z" fill="white"/>
<path d="M0 0.426392H5.80531V8.59319H16.3992V0.426392H22.2045V21.9421H16.3992V13.7753H5.80531V21.9421H0V0.426392Z" fill="white"/>
</svg>
